<svg version="1.1" xmlns="http://www.w3.org/2000/svg" xmlns:xlink="http://www.w3.org/1999/xlink" width="937.5" height="937.5" style="enable-background:new 0 0 937.5 937.5;" xml:space="preserve"><rect id="backgroundrect" width="100%" height="100%" x="0" y="0" fill="none" stroke="none"/>
















<g class="currentLayer" style=""><title>Layer 1</title><g id="svg_1" class="selected" fill="#ffffff" fill-opacity="1">
	<path d="M629.549,388.2c42.9-42.9,66.602-100.1,66.602-160.8c0-60.7-23.701-117.9-66.602-160.8C586.549,23.7,529.449,0,468.75,0   c-60.7,0-117.8,23.7-160.8,66.6c-42.9,42.9-66.6,100.1-66.6,160.8c0,60.7,23.7,117.8,66.6,160.8c27.8,27.8,61.5,47.5,98.3,57.899   v190.5v161.7V875c0,34.5,28,62.5,62.5,62.5c34.5,0,62.5-28,62.5-62.5v-14.2h35.799c34.5,0,62.5-28,62.5-62.5s-28-62.5-62.5-62.5   H531.25v-36.7h35.799c34.5,0,62.5-28,62.5-62.5s-28-62.5-62.5-62.5H531.25v-128C568.049,435.7,601.75,416,629.549,388.2z    M366.349,227.4c0-56.5,45.9-102.4,102.4-102.4c56.5,0,102.401,45.9,102.401,102.4s-45.9,102.4-102.401,102.4   C412.25,329.8,366.349,283.8,366.349,227.4z" id="svg_2" fill="#ffffff" fill-opacity="1"/>
</g><g id="svg_3" class="selected" fill="#ffffff" fill-opacity="1">
</g><g id="svg_4" class="selected" fill="#ffffff" fill-opacity="1">
</g><g id="svg_5" class="selected" fill="#ffffff" fill-opacity="1">
</g><g id="svg_6" class="selected" fill="#ffffff" fill-opacity="1">
</g><g id="svg_7" class="selected" fill="#ffffff" fill-opacity="1">
</g><g id="svg_8" class="selected" fill="#ffffff" fill-opacity="1">
</g><g id="svg_9" class="selected" fill="#ffffff" fill-opacity="1">
</g><g id="svg_10" class="selected" fill="#ffffff" fill-opacity="1">
</g><g id="svg_11" class="selected" fill="#ffffff" fill-opacity="1">
</g><g id="svg_12" class="selected" fill="#ffffff" fill-opacity="1">
</g><g id="svg_13" class="selected" fill="#ffffff" fill-opacity="1">
</g><g id="svg_14" class="selected" fill="#ffffff" fill-opacity="1">
</g><g id="svg_15" class="selected" fill="#ffffff" fill-opacity="1">
</g><g id="svg_16" class="selected" fill="#ffffff" fill-opacity="1">
</g><g id="svg_17" class="selected" fill="#ffffff" fill-opacity="1">
</g></g></svg>