<svg version="1.1" xmlns="http://www.w3.org/2000/svg" xmlns:xlink="http://www.w3.org/1999/xlink" width="553.859" height="553.859" style="enable-background:new 0 0 553.859 553.859;" xml:space="preserve"><rect id="backgroundrect" width="100%" height="100%" x="0" y="0" fill="none" stroke="none"/>
















<g class="currentLayer" style=""><title>Layer 1</title><g id="svg_1" class="selected" fill="#ffffff" fill-opacity="1">
	<g id="svg_2" fill="#ffffff" fill-opacity="1">
		<path d="M397.897,37.46c-18.151-9.015-40.196-1.609-49.217,16.561c-9.021,18.165-1.604,40.196,16.561,49.217    c68.214,33.868,110.589,102.18,110.589,178.281c0,109.678-89.23,198.9-198.9,198.9c-109.67,0-198.9-89.223-198.9-198.9    c0-76.114,42.387-144.432,110.619-178.293c18.17-9.015,25.588-31.047,16.573-49.217c-9.015-18.17-31.041-25.576-49.217-16.573    C62.607,83.789,4.59,177.315,4.59,281.52c0,150.166,122.167,272.34,272.34,272.34c150.173,0,272.34-122.174,272.34-272.34    C549.27,177.333,491.265,83.819,397.897,37.46z" id="svg_3" fill="#ffffff" fill-opacity="1"/>
		<path d="M276.93,345.779c20.275,0,36.72-16.443,36.72-36.719V36.72c0-20.276-16.444-36.72-36.72-36.72s-36.72,16.444-36.72,36.72    v272.34C240.209,329.336,256.654,345.779,276.93,345.779z" id="svg_4" fill="#ffffff" fill-opacity="1"/>
	</g>
</g><g id="svg_5" class="selected" fill="#ffffff" fill-opacity="1">
</g><g id="svg_6" class="selected" fill="#ffffff" fill-opacity="1">
</g><g id="svg_7" class="selected" fill="#ffffff" fill-opacity="1">
</g><g id="svg_8" class="selected" fill="#ffffff" fill-opacity="1">
</g><g id="svg_9" class="selected" fill="#ffffff" fill-opacity="1">
</g><g id="svg_10" class="selected" fill="#ffffff" fill-opacity="1">
</g><g id="svg_11" class="selected" fill="#ffffff" fill-opacity="1">
</g><g id="svg_12" class="selected" fill="#ffffff" fill-opacity="1">
</g><g id="svg_13" class="selected" fill="#ffffff" fill-opacity="1">
</g><g id="svg_14" class="selected" fill="#ffffff" fill-opacity="1">
</g><g id="svg_15" class="selected" fill="#ffffff" fill-opacity="1">
</g><g id="svg_16" class="selected" fill="#ffffff" fill-opacity="1">
</g><g id="svg_17" class="selected" fill="#ffffff" fill-opacity="1">
</g><g id="svg_18" class="selected" fill="#ffffff" fill-opacity="1">
</g><g id="svg_19" class="selected" fill="#ffffff" fill-opacity="1">
</g></g></svg>